inDegrees=no
num_controls=7
num_derivatives=13
num_iterations=98
num_multipliers=7
num_parameters=0
num_slacks=7
num_states=26
objective=0.454546
objective_accelerations=0.043765
objective_balance=0.000794
objective_effort=0.035982
objective_height=0.367909
objective_ligament=0.006096
solver_duration=1111.943285
status=Solve_Succeeded
success=true
DataType=double
version=3
OpenSimVersion=4.5
endheader
time	/jointset/ground_pelvis/pelvis_tilt/value	/jointset/ground_pelvis/pelvis_tx/value	/jointset/ground_pelvis/pelvis_ty/value	/jointset/hip_r/hip_flexion_r/value	/jointset/hip_r/hip_adduction_r/value	/jointset/hip_r/hip_rotation_r/value	/jointset/back/lumbar_extension/value	/jointset/patellofemoral_r/patellar_flexion_r/value	/jointset/knee_r/knee_flexion_r/value	/jointset/knee_r/knee_adduction_r/value	/jointset/knee_r/knee_rotation_r/value	/jointset/ankle_r/ankle_angle_r/value	/jointset/subtalar_r/subtalar_angle_r/value	/jointset/ground_pelvis/pelvis_tilt/speed	/jointset/ground_pelvis/pelvis_tx/speed	/jointset/ground_pelvis/pelvis_ty/speed	/jointset/hip_r/hip_flexion_r/speed	/jointset/hip_r/hip_adduction_r/speed	/jointset/hip_r/hip_rotation_r/speed	/jointset/back/lumbar_extension/speed	/jointset/patellofemoral_r/patellar_flexion_r/speed	/jointset/knee_r/knee_flexion_r/speed	/jointset/knee_r/knee_adduction_r/speed	/jointset/knee_r/knee_rotation_r/speed	/jointset/ankle_r/ankle_angle_r/speed	/jointset/subtalar_r/subtalar_angle_r/speed	/forceset/tau_hip_flexion_r	/forceset/tau_hip_adduction_r	/forceset/tau_hip_rotation_r	/forceset/tau_knee_flexion_r	/forceset/tau_ankle_angle_r	/forceset/tau_subtalar_angle_r	/forceset/tau_lumbar_extension	lambda_cid13_p0	lambda_cid14_p0	lambda_cid14_p1	lambda_cid14_p2	lambda_cid14_p3	lambda_cid14_p4	lambda_cid14_p5	/jointset/ground_pelvis/pelvis_tilt/accel	/jointset/ground_pelvis/pelvis_tx/accel	/jointset/ground_pelvis/pelvis_ty/accel	/jointset/hip_r/hip_flexion_r/accel	/jointset/hip_r/hip_adduction_r/accel	/jointset/hip_r/hip_rotation_r/accel	/jointset/back/lumbar_extension/accel	/jointset/patellofemoral_r/patellar_flexion_r/accel	/jointset/knee_r/knee_flexion_r/accel	/jointset/knee_r/knee_adduction_r/accel	/jointset/knee_r/knee_rotation_r/accel	/jointset/ankle_r/ankle_angle_r/accel	/jointset/subtalar_r/subtalar_angle_r/accel	gamma_cid13_p0	gamma_cid14_p0	gamma_cid14_p1	gamma_cid14_p2	gamma_cid14_p3	gamma_cid14_p4	gamma_cid14_p5
1.5	-0.05922096719262634	0.0431400110228041	0.8261350504192482	0.7516287461612361	-0.2525196490815038	-0.06105447078525017	-0.6219180837949233	0.9189575464060384	0.9189575464076267	0.06590984358050582	0.1742048657071294	0.3011246189783665	0.09417678740905003	0.4003945144832777	0.2060925866587884	0.4616692147320751	-1.852691709259649	0.03954330526674762	-0.4979575629225959	0.7995013663783149	-1.893045760371347	-1.893045760371322	0.09799248783781396	0.002528372952033551	-0.5191479178577997	-0.109183509015982	-0.1446373904424808	-0.004689237137557289	0.03530184907484828	-0.3116811296507125	0.0101098946777949	-0.01456783185023193	0.2042006259115033	-9.840288028921782	-39.72089859779231	-12.04795378035106	0.9335279776277328	-2.080495391675356	-635.3947641614423	62.28480701215471	0.01880377291838593	0.4991305964466837	-0.4273544807565139	-0.9098846006424643	0.2003857164280307	-0.1742740485837539	1.725567220847791	-1.427401255452366	-1.427401255452115	0.4851276773820011	-0.01208606632966183	-0.5862044111969112	0.1817734570196032	8.57289658135106e-08	2.644573669001007e-09	-1.402054832896258e-06	2.090749346666919e-07	1.410552672789426e-07	1.63454351992245e-07	-9.488064047475793e-07
1.51	-0.05521633446596211	0.04522567766527229	0.8307294205521575	0.7330583151886224	-0.2521147784790165	-0.06604278057958997	-0.6138382396984762	0.8999581815049125	0.8999581815059792	0.06691484093766489	0.1742307398888474	0.2959044129155026	0.09309328467136993	0.4004802744477354	0.2110158359838048	0.4571060050153264	-1.861147094331871	0.04141834255113382	-0.4996395881506738	0.8163495568343393	-1.906555057783482	-1.90655505778349	0.1030393055531853	0.002641314855147973	-0.524811808077333	-0.107515127634273	-0.1379547170717025	-0.006110570114007524	0.03455458629078333	-0.3077612134083669	0.01200274071616752	-0.01503194309905423	0.1979436254594895	-10.84605497837385	-38.85343610596964	-11.97558706990923	0.7825875714926867	-2.230505564059719	-630.9408088766112	62.0384084623071	-0.004300451686604779	0.4852061398459163	-0.4855917120759823	-0.7762546914457834	0.1791636768745149	-0.1553135717437575	1.646760546448875	-1.271887686472675	-1.271887686477841	0.5191553058243253	0.02224888846319531	-0.5442270534131761	0.1595227574456956	8.859058619878295e-08	1.745625021399354e-08	-1.213946207108048e-06	3.009010070813438e-07	1.136847211461902e-07	1.662242231321424e-07	-8.250626339024241e-07
1.52	-0.05121239665163353	0.04735983360885401	0.835275201088911	0.7144107525190985	-0.2516915373151998	-0.071045939988575	-0.6055934505797752	0.8808318848891877	0.8808318848897353	0.06797124576941392	0.1742575964035651	0.2906300188052272	0.09202649620324665	0.4002555320163522	0.2157904468814913	0.4519512955009004	-1.86811804864144	0.04321741753274524	-0.5009274858517104	0.8324903708291292	-1.91843210329076	-1.918432103290804	0.1082739827569427	0.00272483955151009	-0.529985527340132	-0.1058406551045984	-0.1312720437009268	-0.007531903090459887	0.03380732350673736	-0.3038412971660215	0.01389558675453938	-0.01549605434788042	0.1916866250074735	-11.85408785640283	-37.98810955234929	-11.90145097820635	0.6289163696693536	-2.387945530815216	-626.5146875817262	61.83090167344514	-0.04329670624982994	0.4694029109807125	-0.5456544402920089	-0.612998448111847	0.1851932558730749	-0.09544854317553217	1.584091928600923	-1.100950874480893	-1.100950874481044	0.5226995750592133	-0.01796950768012196	-0.4881702198500519	0.1829916866126971	9.406099392691392e-08	2.971838220412326e-08	-1.115253937250625e-06	3.820918177858138e-07	9.678689084191424e-08	1.743584868180778e-07	-7.647660279329881e-07
1.53	-0.04721231565994487	0.04954092146168116	0.8397665227655789	0.6957010283064826	-0.2512507286752441	-0.07605993868101481	-0.597190897845619	0.8615950777715252	0.8615950777716811	0.06908101610177536	0.1742850800601944	0.285306348356079	0.09097642643638025	0.3997035347940034	0.2203947017424588	0.446218797334828	-1.873563336763039	0.04493127457412247	-0.5018144477323364	0.8478896302241108	-1.928643440750932	-1.928643440750967	0.1136986206669824	0.002766311774075104	-0.5346631961725268	-0.1041709329844197	-0.1245509971993883	-0.009051200968320501	0.03304001379984017	-0.3000168741130678	0.01574159236387634	-0.01598701271157928	0.185381632647113	-12.86121574004585	-37.15285600797388	-11.84485036006666	0.4787383349101792	-2.47838610330702	-622.2521932470876	61.6330158605851	-0.0697181548649143	0.4510910678666731	-0.6011447597475292	-0.4707707880985643	0.1625152172514144	-0.07650091303817988	1.498261078227484	-0.9383646012853653	-0.9383646012840197	0.5549780190679148	0.01443504370965176	-0.4447292101019603	0.1592006964233486	1.023032382068322e-07	3.927162310471125e-08	-1.111566545569663e-06	4.519826629232159e-07	9.101632110539419e-08	1.881924175841785e-07	-7.718820346440029e-07
1.54	-0.04321946802540833	0.05176708272196038	0.8441977000095895	0.6769447558538668	-0.2507931748070792	-0.08108104317276711	-0.5886382688908569	0.8422647293953585	0.8422647293951262	0.07024555923724453	0.1743128243303508	0.2799384684195735	0.08994310153505609	0.3988088605861563	0.2248051283719014	0.4399224089694486	-1.877427696641225	0.04656646317475659	-0.5023486457142454	0.8625056149503221	-1.937140354991106	-1.937140354991132	0.1192285433806859	0.002776962256033127	-0.5388274248116326	-0.102491681996126	-0.117829950697852	-0.01057049884618566	0.03227270409297993	-0.2961924510601143	0.01758759797321156	-0.01647797107528626	0.179076640286751	-13.86344126190947	-36.3200394603241	-11.78655790946887	0.3258701041924394	-2.575395225717035	-618.0221537709148	61.47791632427086	-0.1118321033495444	0.4306372646757486	-0.65843248015342	-0.2968127994293498	0.1694595677244483	-0.02489576343215555	1.427436994846868	-0.7580662304813884	-0.7580662304813658	0.5437565357919568	-0.02413385580152062	-0.385482181192244	0.1848974602356866	1.107892772869686e-07	4.939706992561754e-08	-1.116253192649973e-06	5.227184711518872e-07	8.533330871131697e-08	2.055794921259646e-07	-7.870505292669971e-07
1.55	-0.03923726781769013	0.05403632229349158	0.8485631663427423	0.6581577505578695	-0.2503197182863825	-0.08610563622781627	-0.5799435938490656	0.8228580451836772	0.8228580451830715	0.07146604705825178	0.1743404631605837	0.2745315299082854	0.08892654609554838	0.3975715880987861	0.229004206022199	0.4330828410706915	-1.87969894160521	0.04811118407258078	-0.5025135314686608	0.8762822429876185	-1.943897134924461	-1.943897134924492	0.1248771751069828	0.002742260318910378	-0.5424689930011436	-0.1008159997424356	-0.1110360380882341	-0.01215758080403518	0.03149117051786289	-0.2926120184085624	0.01959528883417171	-0.0170673270931591	0.1727198653413655	-14.85781178822135	-35.45822399110448	-11.77414146068178	0.1897049764739838	-2.663080186376698	-614.0221195090501	61.28850848793161	-0.1386093808398865	0.4087713584195325	-0.7098736344504007	-0.1511101528629242	0.1449331759450939	-0.003651899564126015	1.330703145101119	-0.5896058969837553	-0.5896058969845228	0.576491069091516	0.005675706699005058	-0.3397693698914255	0.1593103967664354	1.19556210376052e-07	6.018179748080357e-08	-1.130588188737836e-06	5.944278238118034e-07	7.975117760309775e-08	2.270604062353882e-07	-8.114968903972717e-07
1.56	-0.03526922724672873	0.05634639831016829	0.852857606058965	0.6393562668506356	-0.249831223591682	-0.09113015152403241	-0.5711155670395153	0.803392768768216	0.80339276876724	0.0727432361121232	0.1743675177853219	0.2690909206686901	0.0879268288363436	0.3959769332350533	0.2329724174010054	0.4257170855833922	-1.880323378888386	0.04957409797575387	-0.5023330939477924	0.8891759685021196	-1.948858795746663	-1.948858795746699	0.1305687899549995	0.002660121156453374	-0.545561570473091	-0.09912404593551656	-0.1042421254786154	-0.01374466276188643	0.03070963694277067	-0.2890315857570105	0.02160297969513104	-0.01765668311103523	0.1663630903959807	-15.84193786226126	-34.59814091281168	-11.75972248255994	0.05058598372452645	-2.758891313924259	-610.0456982334304	61.14496630522848	-0.1833085786220646	0.3844640103775168	-0.7636699978618705	0.03254873673262445	0.1530981687942262	0.04416889162462587	1.250856490287776	-0.3990424082507127	-0.3990424082507051	0.5523531601359415	-0.03362130086837335	-0.2756840376795308	0.1881517708814157	1.280636289308258e-07	7.098935359590069e-08	-1.145384800774361e-06	6.648149477008989e-07	7.412263075781604e-08	2.496033280527271e-07	-8.383515727990632e-07
1.57	-0.03131884409584165	0.05869494420988105	0.8570758516243394	0.6205566810720752	-0.2493286212366133	-0.0961509908770905	-0.5621632595627437	0.7838868690603308	0.7838868690594368	0.07407782359494375	0.1743934952996823	0.2636221100809741	0.08694394718596103	0.3940430450465644	0.2366920236221269	0.4178520932910745	-1.879316364717265	0.05092616939939595	-0.5017732843230918	0.9011187257942558	-1.952010983069211	-1.952010983069284	0.1363622321281713	0.002528142538005228	-0.5481062986021195	-0.09745743362197877	-0.0974364715768939	-0.015419172495747	0.02991810068460391	-0.2856821374429441	0.02368552312108362	-0.01832456437677411	0.1600146718159496	-16.81392446613905	-33.74130935351202	-11.78526294720444	-0.07612297126519305	-2.821798132992139	-606.3854366351248	60.98508772215359	-0.2069210338959216	0.35901112250273	-0.8098465315081761	0.1763988615855831	0.1232481710550474	0.07129783491098152	1.140965189968244	-0.2268106716810986	-0.2268106716865436	0.5947209774298148	-0.00394869343346907	-0.2296967223278133	0.1550507793749867	1.362466543177125e-07	8.182544541088664e-08	-1.160758432746715e-06	7.335492856264684e-07	6.843606424120625e-08	2.734737595049603e-07	-8.682166567902509e-07
1.58	-0.02738949824582753	0.06107934661070966	0.8612130607294723	0.6017754896560812	-0.2488131008589282	-0.1011643499664972	-0.5530965285447927	0.7643587467237332	0.7643587467229237	0.07547072174579174	0.1744179605176419	0.2581306863076054	0.08597755862227072	0.3917694730607337	0.2401437176241767	0.4095097935350968	-1.876644506374791	0.05215770249927367	-0.5008370412176639	0.912060676738061	-1.95330332148873	-1.953303321488838	0.1422309235622253	0.00235766187553914	-0.5500842076036803	-0.0958254285970402	-0.09063081767517667	-0.01709368222961014	0.02912656442646459	-0.2823326891288789	0.02576806654703507	-0.01899244564251761	0.1536662532359152	-17.77239609902438	-32.88505624966628	-11.80845337103032	-0.2060074854445615	-2.895721562535232	-602.7335613880725	60.87314746340751	-0.2512453380904367	0.3308815665631814	-0.8591314905938519	0.3655175710032719	0.1289905040413508	0.1194555877700622	1.050695220621556	-0.02707262764476655	-0.02707262764476381	0.5674030123124114	-0.04132170967196508	-0.1623202121859643	0.1812303131615748	1.440089919284698e-07	9.226234379227584e-08	-1.180639946014234e-06	7.979117887878151e-07	6.339649624136572e-08	2.994101057480063e-07	-9.019751924526251e-07
1.59	-0.02348458479153516	0.06349687185633714	0.8652645589097943	0.5830293359884487	-0.2482858922791752	-0.1061665180560268	-0.5439255231715465	0.7448270052475154	0.7448270052474147	0.07692263542455716	0.1744405171254229	0.2526223133379765	0.0850272983785572	0.389150068510615	0.2433108045996696	0.400717997057605	-1.872293350839561	0.0532661655476566	-0.499545014877048	0.9219664986362405	-1.952722642747223	-1.952722642747347	0.1481423976518553	0.002147951715475709	-0.5514904822780794	-0.09422584211259893	-0.08382885246213173	-0.01882967396817104	0.02832423443191516	-0.2792796412715883	0.0279651098652435	-0.01976194416213353	0.1473615158627844	-18.71651216806044	-32.02604076971996	-11.88200238081118	-0.3201982311878955	-2.94623933409457	-599.484647006572	60.73545075856657	-0.2767539021938443	0.3020545788238808	-0.8999114914516649	0.5138571134253797	0.09912315558021627	0.1420150075460653	0.9344407831513784	0.1489566789685666	0.1489566789663137	0.60145860320582	-0.01150532789335832	-0.1147606145414706	0.1493522850126701	1.512003961287655e-07	1.021574796566409e-07	-1.206639298182331e-06	8.563410876262881e-07	5.923499765714056e-08	3.281501934928694e-07	-9.410176982401808e-07
